# xmcd
#
# Track frame offsets:
#	183
#	5658
#	19983
#	26958
#	37233
#	50358
#	64308
#	82308
#	88983
#	113208
#	127083
#	137883
#	158508
#	171933
#	193383
#	199983
#	215208
#	238833
#	251508
#	267408
#	288258
#	299808
#	306558
#	322383
#
# Disc length: 4421 seconds
#
# Revision: 0
# Processed by: cddbd v1.4PL0 Copyright (c) Steve Scherf et al.
# Submitted via: EasyCDDAExtractor 5.0.5.1
#
DISCID=9d114318
DTITLE=Andrei Gavrilov - Grieg - Lyric Pieces for Piano
DYEAR=1992
DGENRE=Classical
TTITLE0=Arietta
TTITLE1=Cradle Song
TTITLE2=Butterfly
TTITLE3=Solitary Travelller
TTITLE4=To spring
TTITLE5=Album Leaf
TTITLE6=Melody
TTITLE7=Halling
TTITLE8=Sheperd's Boy
TTITLE9=Gangar
TTITLE10=March of the Dwarfs
TTITLE11=Nocturne
TTITLE12=Scherzo
TTITLE13=Homesickness
TTITLE14=Brooklet
TTITLE15=Ballad
TTITLE16=Wedding Day at Troldhaugen
TTITLE17=At your Feet
TTITLE18=At the Cradle
TTITLE19=Once Upon a Time
TTITLE20=Summer's Eve
TTITLE21=Puck
TTITLE22=Gone
TTITLE23=Remebrances
EXTD=
EXTT0=Andrei Gavrilov
EXTT1=Andrei Gavrilov
EXTT2=Andrei Gavrilov
EXTT3=Andrei Gavrilov
EXTT4=Andrei Gavrilov
EXTT5=Andrei Gavrilov
EXTT6=Andrei Gavrilov
EXTT7=Andrei Gavrilov
EXTT8=Andrei Gavrilov
EXTT9=Andrei Gavrilov
EXTT10=Andrei Gavrilov
EXTT11=Andrei Gavrilov
EXTT12=Andrei Gavrilov
EXTT13=Andrei Gavrilov
EXTT14=Andrei Gavrilov
EXTT15=Andrei Gavrilov
EXTT16=Andrei Gavrilov
EXTT17=Andrei Gavrilov
EXTT18=Andrei Gavrilov
EXTT19=Andrei Gavrilov
EXTT20=Andrei Gavrilov
EXTT21=Andrei Gavrilov
EXTT22=Andrei Gavrilov
EXTT23=Andrei Gavrilov
PLAYORDER=
